<svg width="219" height="91" viewBox="0 0 219 91" fill="none" xmlns="http://www.w3.org/2000/svg">
<path d="M9.97809 87V80.844H10.8841C11.0761 80.844 11.2021 80.934 11.2621 81.114L11.3581 81.57C11.4661 81.45 11.5781 81.34 11.6941 81.24C11.8141 81.14 11.9401 81.054 12.0721 80.982C12.2081 80.91 12.3521 80.854 12.5041 80.814C12.6601 80.77 12.8301 80.748 13.0141 80.748C13.4021 80.748 13.7201 80.854 13.9681 81.066C14.2201 81.274 14.4081 81.552 14.5321 81.9C14.6281 81.696 14.7481 81.522 14.8921 81.378C15.0361 81.23 15.1941 81.11 15.3661 81.018C15.5381 80.926 15.7201 80.858 15.9121 80.814C16.1081 80.77 16.3041 80.748 16.5001 80.748C16.8401 80.748 17.1421 80.8 17.4061 80.904C17.6701 81.008 17.8921 81.16 18.0721 81.36C18.2521 81.56 18.3881 81.804 18.4801 82.092C18.5761 82.38 18.6241 82.71 18.6241 83.082V87H17.1421V83.082C17.1421 82.69 17.0561 82.396 16.8841 82.2C16.7121 82 16.4601 81.9 16.1281 81.9C15.9761 81.9 15.8341 81.926 15.7021 81.978C15.5741 82.03 15.4601 82.106 15.3601 82.206C15.2641 82.302 15.1881 82.424 15.1321 82.572C15.0761 82.72 15.0481 82.89 15.0481 83.082V87H13.5601V83.082C13.5601 82.67 13.4761 82.37 13.3081 82.182C13.1441 81.994 12.9021 81.9 12.5821 81.9C12.3661 81.9 12.1641 81.954 11.9761 82.062C11.7921 82.166 11.6201 82.31 11.4601 82.494V87H9.97809ZM21.5688 80.844V87H20.0808V80.844H21.5688ZM21.7728 79.05C21.7728 79.178 21.7468 79.298 21.6948 79.41C21.6428 79.522 21.5728 79.62 21.4848 79.704C21.4008 79.788 21.3008 79.856 21.1848 79.908C21.0688 79.956 20.9448 79.98 20.8128 79.98C20.6848 79.98 20.5628 79.956 20.4468 79.908C20.3348 79.856 20.2368 79.788 20.1528 79.704C20.0688 79.62 20.0008 79.522 19.9488 79.41C19.9008 79.298 19.8768 79.178 19.8768 79.05C19.8768 78.918 19.9008 78.794 19.9488 78.678C20.0008 78.562 20.0688 78.462 20.1528 78.378C20.2368 78.294 20.3348 78.228 20.4468 78.18C20.5628 78.128 20.6848 78.102 20.8128 78.102C20.9448 78.102 21.0688 78.128 21.1848 78.18C21.3008 78.228 21.4008 78.294 21.4848 78.378C21.5728 78.462 21.6428 78.562 21.6948 78.678C21.7468 78.794 21.7728 78.918 21.7728 79.05ZM24.4657 81.6C24.5897 81.476 24.7197 81.362 24.8557 81.258C24.9957 81.15 25.1417 81.06 25.2937 80.988C25.4497 80.912 25.6157 80.854 25.7917 80.814C25.9677 80.77 26.1597 80.748 26.3677 80.748C26.7037 80.748 27.0017 80.806 27.2617 80.922C27.5217 81.034 27.7377 81.194 27.9097 81.402C28.0857 81.606 28.2177 81.852 28.3057 82.14C28.3977 82.424 28.4437 82.738 28.4437 83.082V87H26.9617V83.082C26.9617 82.706 26.8757 82.416 26.7037 82.212C26.5317 82.004 26.2697 81.9 25.9177 81.9C25.6617 81.9 25.4217 81.958 25.1977 82.074C24.9737 82.19 24.7617 82.348 24.5617 82.548V87H23.0797V80.844H23.9857C24.1777 80.844 24.3037 80.934 24.3637 81.114L24.4657 81.6ZM31.3891 80.844V87H29.9011V80.844H31.3891ZM31.5931 79.05C31.5931 79.178 31.5671 79.298 31.5151 79.41C31.4631 79.522 31.3931 79.62 31.3051 79.704C31.2211 79.788 31.1211 79.856 31.0051 79.908C30.8891 79.956 30.7651 79.98 30.6331 79.98C30.5051 79.98 30.3831 79.956 30.2671 79.908C30.1551 79.856 30.0571 79.788 29.9731 79.704C29.8891 79.62 29.8211 79.522 29.7691 79.41C29.7211 79.298 29.6971 79.178 29.6971 79.05C29.6971 78.918 29.7211 78.794 29.7691 78.678C29.8211 78.562 29.8891 78.462 29.9731 78.378C30.0571 78.294 30.1551 78.228 30.2671 78.18C30.3831 78.128 30.5051 78.102 30.6331 78.102C30.7651 78.102 30.8891 78.128 31.0051 78.18C31.1211 78.228 31.2211 78.294 31.3051 78.378C31.3931 78.462 31.4631 78.562 31.5151 78.678C31.5671 78.794 31.5931 78.918 31.5931 79.05ZM32.9 87V80.844H33.806C33.998 80.844 34.124 80.934 34.184 81.114L34.28 81.57C34.388 81.45 34.5 81.34 34.616 81.24C34.736 81.14 34.862 81.054 34.994 80.982C35.13 80.91 35.274 80.854 35.426 80.814C35.582 80.77 35.752 80.748 35.936 80.748C36.324 80.748 36.642 80.854 36.89 81.066C37.142 81.274 37.33 81.552 37.454 81.9C37.55 81.696 37.67 81.522 37.814 81.378C37.958 81.23 38.116 81.11 38.288 81.018C38.46 80.926 38.642 80.858 38.834 80.814C39.03 80.77 39.226 80.748 39.422 80.748C39.762 80.748 40.064 80.8 40.328 80.904C40.592 81.008 40.814 81.16 40.994 81.36C41.174 81.56 41.31 81.804 41.402 82.092C41.498 82.38 41.546 82.71 41.546 83.082V87H40.064V83.082C40.064 82.69 39.978 82.396 39.806 82.2C39.634 82 39.382 81.9 39.05 81.9C38.898 81.9 38.756 81.926 38.624 81.978C38.496 82.03 38.382 82.106 38.282 82.206C38.186 82.302 38.11 82.424 38.054 82.572C37.998 82.72 37.97 82.89 37.97 83.082V87H36.482V83.082C36.482 82.67 36.398 82.37 36.23 82.182C36.066 81.994 35.824 81.9 35.504 81.9C35.288 81.9 35.086 81.954 34.898 82.062C34.714 82.166 34.542 82.31 34.382 82.494V87H32.9ZM48.2587 80.844V87H47.3527C47.1567 87 47.0327 86.91 46.9807 86.73L46.8787 86.238C46.6267 86.494 46.3487 86.702 46.0447 86.862C45.7407 87.018 45.3827 87.096 44.9707 87.096C44.6347 87.096 44.3367 87.04 44.0767 86.928C43.8207 86.812 43.6047 86.65 43.4287 86.442C43.2527 86.234 43.1187 85.988 43.0267 85.704C42.9387 85.416 42.8947 85.1 42.8947 84.756V80.844H44.3767V84.756C44.3767 85.132 44.4627 85.424 44.6347 85.632C44.8107 85.836 45.0727 85.938 45.4207 85.938C45.6767 85.938 45.9167 85.882 46.1407 85.77C46.3647 85.654 46.5767 85.496 46.7767 85.296V80.844H48.2587ZM49.7281 87V80.844H50.6341C50.8261 80.844 50.9521 80.934 51.0121 81.114L51.1081 81.57C51.2161 81.45 51.3281 81.34 51.4441 81.24C51.5641 81.14 51.6901 81.054 51.8221 80.982C51.9581 80.91 52.1021 80.854 52.2541 80.814C52.4101 80.77 52.5801 80.748 52.7641 80.748C53.1521 80.748 53.4701 80.854 53.7181 81.066C53.9701 81.274 54.1581 81.552 54.2821 81.9C54.3781 81.696 54.4981 81.522 54.6421 81.378C54.7861 81.23 54.9441 81.11 55.1161 81.018C55.2881 80.926 55.4701 80.858 55.6621 80.814C55.8581 80.77 56.0541 80.748 56.2501 80.748C56.5901 80.748 56.8921 80.8 57.1561 80.904C57.4201 81.008 57.6421 81.16 57.8221 81.36C58.0021 81.56 58.1381 81.804 58.2301 82.092C58.3261 82.38 58.3741 82.71 58.3741 83.082V87H56.8921V83.082C56.8921 82.69 56.8061 82.396 56.6341 82.2C56.4621 82 56.2101 81.9 55.8781 81.9C55.7261 81.9 55.5841 81.926 55.4521 81.978C55.3241 82.03 55.2101 82.106 55.1101 82.206C55.0141 82.302 54.9381 82.424 54.8821 82.572C54.8261 82.72 54.7981 82.89 54.7981 83.082V87H53.3101V83.082C53.3101 82.67 53.2261 82.37 53.0581 82.182C52.8941 81.994 52.6521 81.9 52.3321 81.9C52.1161 81.9 51.9141 81.954 51.7261 82.062C51.5421 82.166 51.3701 82.31 51.2101 82.494V87H49.7281ZM67.1108 82.146C67.0668 82.202 67.0228 82.246 66.9788 82.278C66.9388 82.31 66.8788 82.326 66.7988 82.326C66.7228 82.326 66.6488 82.304 66.5768 82.26C66.5048 82.212 66.4188 82.16 66.3188 82.104C66.2188 82.044 66.0988 81.992 65.9588 81.948C65.8228 81.9 65.6528 81.876 65.4488 81.876C65.1888 81.876 64.9608 81.924 64.7648 82.02C64.5688 82.112 64.4048 82.246 64.2728 82.422C64.1448 82.598 64.0488 82.812 63.9848 83.064C63.9208 83.312 63.8888 83.594 63.8888 83.91C63.8888 84.238 63.9228 84.53 63.9908 84.786C64.0628 85.042 64.1648 85.258 64.2968 85.434C64.4288 85.606 64.5888 85.738 64.7768 85.83C64.9648 85.918 65.1768 85.962 65.4128 85.962C65.6488 85.962 65.8388 85.934 65.9828 85.878C66.1308 85.818 66.2548 85.754 66.3548 85.686C66.4548 85.614 66.5408 85.55 66.6128 85.494C66.6888 85.434 66.7728 85.404 66.8648 85.404C66.9848 85.404 67.0748 85.45 67.1348 85.542L67.5608 86.082C67.3968 86.274 67.2188 86.436 67.0268 86.568C66.8348 86.696 66.6348 86.8 66.4268 86.88C66.2228 86.956 66.0108 87.01 65.7908 87.042C65.5748 87.074 65.3588 87.09 65.1428 87.09C64.7628 87.09 64.4048 87.02 64.0688 86.88C63.7328 86.736 63.4388 86.528 63.1868 86.256C62.9348 85.984 62.7348 85.652 62.5868 85.26C62.4428 84.864 62.3708 84.414 62.3708 83.91C62.3708 83.458 62.4348 83.04 62.5628 82.656C62.6948 82.268 62.8868 81.934 63.1388 81.654C63.3908 81.37 63.7028 81.148 64.0748 80.988C64.4468 80.828 64.8748 80.748 65.3587 80.748C65.8188 80.748 66.2208 80.822 66.5648 80.97C66.9128 81.118 67.2248 81.33 67.5008 81.606L67.1108 82.146ZM71.1083 80.748C71.5643 80.748 71.9783 80.822 72.3503 80.97C72.7263 81.118 73.0463 81.328 73.3103 81.6C73.5783 81.872 73.7843 82.204 73.9283 82.596C74.0723 82.988 74.1443 83.426 74.1443 83.91C74.1443 84.398 74.0723 84.838 73.9283 85.23C73.7843 85.622 73.5783 85.956 73.3103 86.232C73.0463 86.508 72.7263 86.72 72.3503 86.868C71.9783 87.016 71.5643 87.09 71.1083 87.09C70.6483 87.09 70.2303 87.016 69.8543 86.868C69.4783 86.72 69.1563 86.508 68.8883 86.232C68.6243 85.956 68.4183 85.622 68.2703 85.23C68.1263 84.838 68.0543 84.398 68.0543 83.91C68.0543 83.426 68.1263 82.988 68.2703 82.596C68.4183 82.204 68.6243 81.872 68.8883 81.6C69.1563 81.328 69.4783 81.118 69.8543 80.97C70.2303 80.822 70.6483 80.748 71.1083 80.748ZM71.1083 85.95C71.6203 85.95 71.9983 85.778 72.2423 85.434C72.4903 85.09 72.6143 84.586 72.6143 83.922C72.6143 83.258 72.4903 82.752 72.2423 82.404C71.9983 82.056 71.6203 81.882 71.1083 81.882C70.5883 81.882 70.2023 82.058 69.9503 82.41C69.7023 82.758 69.5783 83.262 69.5783 83.922C69.5783 84.582 69.7023 85.086 69.9503 85.434C70.2023 85.778 70.5883 85.95 71.1083 85.95ZM76.661 81.6C76.785 81.476 76.915 81.362 77.051 81.258C77.191 81.15 77.337 81.06 77.489 80.988C77.645 80.912 77.811 80.854 77.987 80.814C78.163 80.77 78.355 80.748 78.563 80.748C78.899 80.748 79.197 80.806 79.457 80.922C79.717 81.034 79.933 81.194 80.105 81.402C80.281 81.606 80.413 81.852 80.501 82.14C80.593 82.424 80.639 82.738 80.639 83.082V87H79.157V83.082C79.157 82.706 79.071 82.416 78.899 82.212C78.727 82.004 78.465 81.9 78.113 81.9C77.857 81.9 77.617 81.958 77.393 82.074C77.169 82.19 76.957 82.348 76.757 82.548V87H75.275V80.844H76.181C76.373 80.844 76.499 80.934 76.559 81.114L76.661 81.6ZM84.0184 87.096C83.4824 87.096 83.0704 86.946 82.7824 86.646C82.4984 86.342 82.3564 85.924 82.3564 85.392V81.954H81.7264C81.6464 81.954 81.5784 81.928 81.5224 81.876C81.4664 81.824 81.4384 81.746 81.4384 81.642V81.054L82.4284 80.892L82.7404 79.212C82.7604 79.132 82.7984 79.07 82.8544 79.026C82.9104 78.982 82.9824 78.96 83.0704 78.96H83.8384V80.898H85.4824V81.954H83.8384V85.29C83.8384 85.482 83.8844 85.632 83.9764 85.74C84.0724 85.848 84.2024 85.902 84.3664 85.902C84.4584 85.902 84.5344 85.892 84.5944 85.872C84.6584 85.848 84.7124 85.824 84.7564 85.8C84.8044 85.776 84.8464 85.754 84.8824 85.734C84.9184 85.71 84.9544 85.698 84.9904 85.698C85.0344 85.698 85.0704 85.71 85.0984 85.734C85.1264 85.754 85.1564 85.786 85.1884 85.83L85.6324 86.55C85.4164 86.73 85.1684 86.866 84.8884 86.958C84.6084 87.05 84.3184 87.096 84.0184 87.096ZM89.6832 84.372C89.2552 84.392 88.8952 84.43 88.6032 84.486C88.3112 84.538 88.0772 84.606 87.9012 84.69C87.7252 84.774 87.5992 84.872 87.5232 84.984C87.4472 85.096 87.4092 85.218 87.4092 85.35C87.4092 85.61 87.4852 85.796 87.6372 85.908C87.7932 86.02 87.9952 86.076 88.2432 86.076C88.5472 86.076 88.8092 86.022 89.0292 85.914C89.2532 85.802 89.4712 85.634 89.6832 85.41V84.372ZM86.2872 81.702C86.9952 81.054 87.8472 80.73 88.8432 80.73C89.2032 80.73 89.5252 80.79 89.8092 80.91C90.0932 81.026 90.3332 81.19 90.5292 81.402C90.7252 81.61 90.8732 81.86 90.9732 82.152C91.0772 82.444 91.1292 82.764 91.1292 83.112V87H90.4572C90.3172 87 90.2092 86.98 90.1332 86.94C90.0572 86.896 89.9972 86.81 89.9532 86.682L89.8212 86.238C89.6652 86.378 89.5132 86.502 89.3652 86.61C89.2172 86.714 89.0632 86.802 88.9032 86.874C88.7432 86.946 88.5712 87 88.3872 87.036C88.2072 87.076 88.0072 87.096 87.7872 87.096C87.5272 87.096 87.2872 87.062 87.0672 86.994C86.8472 86.922 86.6572 86.816 86.4972 86.676C86.3372 86.536 86.2132 86.362 86.1252 86.154C86.0372 85.946 85.9932 85.704 85.9932 85.428C85.9932 85.272 86.0192 85.118 86.0712 84.966C86.1232 84.81 86.2072 84.662 86.3232 84.522C86.4432 84.382 86.5972 84.25 86.7852 84.126C86.9732 84.002 87.2032 83.894 87.4752 83.802C87.7512 83.71 88.0712 83.636 88.4352 83.58C88.7992 83.52 89.2152 83.484 89.6832 83.472V83.112C89.6832 82.7 89.5952 82.396 89.4192 82.2C89.2432 82 88.9892 81.9 88.6572 81.9C88.4172 81.9 88.2172 81.928 88.0572 81.984C87.9012 82.04 87.7632 82.104 87.6432 82.176C87.5232 82.244 87.4132 82.306 87.3132 82.362C87.2172 82.418 87.1092 82.446 86.9892 82.446C86.8852 82.446 86.7972 82.42 86.7252 82.368C86.6532 82.312 86.5952 82.248 86.5512 82.176L86.2872 81.702ZM96.935 82.146C96.891 82.202 96.847 82.246 96.803 82.278C96.763 82.31 96.703 82.326 96.623 82.326C96.547 82.326 96.473 82.304 96.401 82.26C96.329 82.212 96.243 82.16 96.143 82.104C96.043 82.044 95.923 81.992 95.783 81.948C95.647 81.9 95.477 81.876 95.273 81.876C95.013 81.876 94.785 81.924 94.589 82.02C94.393 82.112 94.229 82.246 94.097 82.422C93.969 82.598 93.873 82.812 93.809 83.064C93.745 83.312 93.713 83.594 93.713 83.91C93.713 84.238 93.747 84.53 93.815 84.786C93.887 85.042 93.989 85.258 94.121 85.434C94.253 85.606 94.413 85.738 94.601 85.83C94.789 85.918 95.001 85.962 95.237 85.962C95.473 85.962 95.663 85.934 95.807 85.878C95.955 85.818 96.079 85.754 96.179 85.686C96.279 85.614 96.365 85.55 96.437 85.494C96.513 85.434 96.597 85.404 96.689 85.404C96.809 85.404 96.899 85.45 96.959 85.542L97.385 86.082C97.221 86.274 97.043 86.436 96.851 86.568C96.659 86.696 96.459 86.8 96.251 86.88C96.047 86.956 95.835 87.01 95.615 87.042C95.399 87.074 95.183 87.09 94.967 87.09C94.587 87.09 94.229 87.02 93.893 86.88C93.557 86.736 93.263 86.528 93.011 86.256C92.759 85.984 92.559 85.652 92.411 85.26C92.267 84.864 92.195 84.414 92.195 83.91C92.195 83.458 92.259 83.04 92.387 82.656C92.519 82.268 92.711 81.934 92.963 81.654C93.215 81.37 93.527 81.148 93.899 80.988C94.271 80.828 94.699 80.748 95.183 80.748C95.643 80.748 96.045 80.822 96.389 80.97C96.737 81.118 97.049 81.33 97.325 81.606L96.935 82.146ZM100.366 87.096C99.83 87.096 99.418 86.946 99.13 86.646C98.846 86.342 98.704 85.924 98.704 85.392V81.954H98.074C97.994 81.954 97.926 81.928 97.87 81.876C97.814 81.824 97.786 81.746 97.786 81.642V81.054L98.776 80.892L99.088 79.212C99.108 79.132 99.146 79.07 99.202 79.026C99.258 78.982 99.33 78.96 99.418 78.96H100.186V80.898H101.83V81.954H100.186V85.29C100.186 85.482 100.232 85.632 100.324 85.74C100.42 85.848 100.55 85.902 100.714 85.902C100.806 85.902 100.882 85.892 100.942 85.872C101.006 85.848 101.06 85.824 101.104 85.8C101.152 85.776 101.194 85.754 101.23 85.734C101.266 85.71 101.302 85.698 101.338 85.698C101.382 85.698 101.418 85.71 101.446 85.734C101.474 85.754 101.504 85.786 101.536 85.83L101.98 86.55C101.764 86.73 101.516 86.866 101.236 86.958C100.956 87.05 100.666 87.096 100.366 87.096ZM106.535 82.044C106.495 82.108 106.453 82.154 106.409 82.182C106.365 82.206 106.309 82.218 106.241 82.218C106.169 82.218 106.091 82.198 106.007 82.158C105.927 82.118 105.833 82.074 105.725 82.026C105.617 81.974 105.493 81.928 105.353 81.888C105.217 81.848 105.055 81.828 104.867 81.828C104.575 81.828 104.345 81.89 104.177 82.014C104.013 82.138 103.931 82.3 103.931 82.5C103.931 82.632 103.973 82.744 104.057 82.836C104.145 82.924 104.259 83.002 104.399 83.07C104.543 83.138 104.705 83.2 104.885 83.256C105.065 83.308 105.247 83.366 105.431 83.43C105.619 83.494 105.803 83.568 105.983 83.652C106.163 83.732 106.323 83.836 106.463 83.964C106.607 84.088 106.721 84.238 106.805 84.414C106.893 84.59 106.937 84.802 106.937 85.05C106.937 85.346 106.883 85.62 106.775 85.872C106.671 86.12 106.515 86.336 106.307 86.52C106.099 86.7 105.841 86.842 105.533 86.946C105.229 87.046 104.877 87.096 104.477 87.096C104.265 87.096 104.057 87.076 103.853 87.036C103.653 87 103.459 86.948 103.271 86.88C103.087 86.812 102.915 86.732 102.755 86.64C102.599 86.548 102.461 86.448 102.341 86.34L102.683 85.776C102.727 85.708 102.779 85.656 102.839 85.62C102.899 85.584 102.975 85.566 103.067 85.566C103.159 85.566 103.245 85.592 103.325 85.644C103.409 85.696 103.505 85.752 103.613 85.812C103.721 85.872 103.847 85.928 103.991 85.98C104.139 86.032 104.325 86.058 104.549 86.058C104.725 86.058 104.875 86.038 104.999 85.998C105.127 85.954 105.231 85.898 105.311 85.83C105.395 85.762 105.455 85.684 105.491 85.596C105.531 85.504 105.551 85.41 105.551 85.314C105.551 85.17 105.507 85.052 105.419 84.96C105.335 84.868 105.221 84.788 105.077 84.72C104.937 84.652 104.775 84.592 104.591 84.54C104.411 84.484 104.225 84.424 104.033 84.36C103.845 84.296 103.659 84.222 103.475 84.138C103.295 84.05 103.133 83.94 102.989 83.808C102.849 83.676 102.735 83.514 102.647 83.322C102.563 83.13 102.521 82.898 102.521 82.626C102.521 82.374 102.571 82.134 102.671 81.906C102.771 81.678 102.917 81.48 103.109 81.312C103.305 81.14 103.547 81.004 103.835 80.904C104.127 80.8 104.463 80.748 104.843 80.748C105.267 80.748 105.653 80.818 106.001 80.958C106.349 81.098 106.639 81.282 106.871 81.51L106.535 82.044Z" fill="#121212"/>
<path d="M110.97 87V80.844H111.876C112.068 80.844 112.194 80.934 112.254 81.114L112.35 81.57C112.458 81.45 112.57 81.34 112.686 81.24C112.806 81.14 112.932 81.054 113.064 80.982C113.2 80.91 113.344 80.854 113.496 80.814C113.652 80.77 113.822 80.748 114.006 80.748C114.394 80.748 114.712 80.854 114.96 81.066C115.212 81.274 115.4 81.552 115.524 81.9C115.62 81.696 115.74 81.522 115.884 81.378C116.028 81.23 116.186 81.11 116.358 81.018C116.53 80.926 116.712 80.858 116.904 80.814C117.1 80.77 117.296 80.748 117.492 80.748C117.832 80.748 118.134 80.8 118.398 80.904C118.662 81.008 118.884 81.16 119.064 81.36C119.244 81.56 119.38 81.804 119.472 82.092C119.568 82.38 119.616 82.71 119.616 83.082V87H118.134V83.082C118.134 82.69 118.048 82.396 117.876 82.2C117.704 82 117.452 81.9 117.12 81.9C116.968 81.9 116.826 81.926 116.694 81.978C116.566 82.03 116.452 82.106 116.352 82.206C116.256 82.302 116.18 82.424 116.124 82.572C116.068 82.72 116.04 82.89 116.04 83.082V87H114.552V83.082C114.552 82.67 114.468 82.37 114.3 82.182C114.136 81.994 113.894 81.9 113.574 81.9C113.358 81.9 113.156 81.954 112.968 82.062C112.784 82.166 112.612 82.31 112.452 82.494V87H110.97ZM124.277 84.372C123.849 84.392 123.489 84.43 123.197 84.486C122.905 84.538 122.671 84.606 122.495 84.69C122.319 84.774 122.193 84.872 122.117 84.984C122.041 85.096 122.003 85.218 122.003 85.35C122.003 85.61 122.079 85.796 122.231 85.908C122.387 86.02 122.589 86.076 122.837 86.076C123.141 86.076 123.403 86.022 123.623 85.914C123.847 85.802 124.065 85.634 124.277 85.41V84.372ZM120.881 81.702C121.589 81.054 122.441 80.73 123.437 80.73C123.797 80.73 124.119 80.79 124.403 80.91C124.687 81.026 124.927 81.19 125.123 81.402C125.319 81.61 125.467 81.86 125.567 82.152C125.671 82.444 125.723 82.764 125.723 83.112V87H125.051C124.911 87 124.803 86.98 124.727 86.94C124.651 86.896 124.591 86.81 124.547 86.682L124.415 86.238C124.259 86.378 124.107 86.502 123.959 86.61C123.811 86.714 123.657 86.802 123.497 86.874C123.337 86.946 123.165 87 122.981 87.036C122.801 87.076 122.601 87.096 122.381 87.096C122.121 87.096 121.881 87.062 121.661 86.994C121.441 86.922 121.251 86.816 121.091 86.676C120.931 86.536 120.807 86.362 120.719 86.154C120.631 85.946 120.587 85.704 120.587 85.428C120.587 85.272 120.613 85.118 120.665 84.966C120.717 84.81 120.801 84.662 120.917 84.522C121.037 84.382 121.191 84.25 121.379 84.126C121.567 84.002 121.797 83.894 122.069 83.802C122.345 83.71 122.665 83.636 123.029 83.58C123.393 83.52 123.809 83.484 124.277 83.472V83.112C124.277 82.7 124.189 82.396 124.013 82.2C123.837 82 123.583 81.9 123.251 81.9C123.011 81.9 122.811 81.928 122.651 81.984C122.495 82.04 122.357 82.104 122.237 82.176C122.117 82.244 122.007 82.306 121.907 82.362C121.811 82.418 121.703 82.446 121.583 82.446C121.479 82.446 121.391 82.42 121.319 82.368C121.247 82.312 121.189 82.248 121.145 82.176L120.881 81.702ZM132.615 87H131.187C131.079 87 130.991 86.972 130.923 86.916C130.859 86.86 130.805 86.796 130.761 86.724L129.459 84.582C129.439 84.65 129.415 84.714 129.387 84.774C129.363 84.834 129.335 84.89 129.303 84.942L128.151 86.724C128.107 86.792 128.053 86.856 127.989 86.916C127.925 86.972 127.845 87 127.749 87H126.423L128.535 83.826L126.507 80.844H127.935C128.043 80.844 128.123 80.86 128.175 80.892C128.227 80.92 128.273 80.968 128.313 81.036L129.603 83.088C129.647 82.952 129.709 82.818 129.789 82.686L130.827 81.066C130.915 80.918 131.029 80.844 131.169 80.844H132.531L130.509 83.76L132.615 87ZM134.924 80.844V87H133.436V80.844H134.924ZM135.128 79.05C135.128 79.178 135.102 79.298 135.05 79.41C134.998 79.522 134.928 79.62 134.84 79.704C134.756 79.788 134.656 79.856 134.54 79.908C134.424 79.956 134.3 79.98 134.168 79.98C134.04 79.98 133.918 79.956 133.802 79.908C133.69 79.856 133.592 79.788 133.508 79.704C133.424 79.62 133.356 79.522 133.304 79.41C133.256 79.298 133.232 79.178 133.232 79.05C133.232 78.918 133.256 78.794 133.304 78.678C133.356 78.562 133.424 78.462 133.508 78.378C133.592 78.294 133.69 78.228 133.802 78.18C133.918 78.128 134.04 78.102 134.168 78.102C134.3 78.102 134.424 78.128 134.54 78.18C134.656 78.228 134.756 78.294 134.84 78.378C134.928 78.462 134.998 78.562 135.05 78.678C135.102 78.794 135.128 78.918 135.128 79.05ZM136.435 87V80.844H137.341C137.533 80.844 137.659 80.934 137.719 81.114L137.815 81.57C137.923 81.45 138.035 81.34 138.151 81.24C138.271 81.14 138.397 81.054 138.529 80.982C138.665 80.91 138.809 80.854 138.961 80.814C139.117 80.77 139.287 80.748 139.471 80.748C139.859 80.748 140.177 80.854 140.425 81.066C140.677 81.274 140.865 81.552 140.989 81.9C141.085 81.696 141.205 81.522 141.349 81.378C141.493 81.23 141.651 81.11 141.823 81.018C141.995 80.926 142.177 80.858 142.369 80.814C142.565 80.77 142.761 80.748 142.957 80.748C143.297 80.748 143.599 80.8 143.863 80.904C144.127 81.008 144.349 81.16 144.529 81.36C144.709 81.56 144.845 81.804 144.937 82.092C145.033 82.38 145.081 82.71 145.081 83.082V87H143.599V83.082C143.599 82.69 143.513 82.396 143.341 82.2C143.169 82 142.917 81.9 142.585 81.9C142.433 81.9 142.291 81.926 142.159 81.978C142.031 82.03 141.917 82.106 141.817 82.206C141.721 82.302 141.645 82.424 141.589 82.572C141.533 82.72 141.505 82.89 141.505 83.082V87H140.017V83.082C140.017 82.67 139.933 82.37 139.765 82.182C139.601 81.994 139.359 81.9 139.039 81.9C138.823 81.9 138.621 81.954 138.433 82.062C138.249 82.166 138.077 82.31 137.917 82.494V87H136.435ZM151.794 80.844V87H150.888C150.692 87 150.568 86.91 150.516 86.73L150.414 86.238C150.162 86.494 149.884 86.702 149.58 86.862C149.276 87.018 148.918 87.096 148.506 87.096C148.17 87.096 147.872 87.04 147.612 86.928C147.356 86.812 147.14 86.65 146.964 86.442C146.788 86.234 146.654 85.988 146.562 85.704C146.474 85.416 146.43 85.1 146.43 84.756V80.844H147.912V84.756C147.912 85.132 147.998 85.424 148.17 85.632C148.346 85.836 148.608 85.938 148.956 85.938C149.212 85.938 149.452 85.882 149.676 85.77C149.9 85.654 150.112 85.496 150.312 85.296V80.844H151.794ZM153.263 87V80.844H154.169C154.361 80.844 154.487 80.934 154.547 81.114L154.643 81.57C154.751 81.45 154.863 81.34 154.979 81.24C155.099 81.14 155.225 81.054 155.357 80.982C155.493 80.91 155.637 80.854 155.789 80.814C155.945 80.77 156.115 80.748 156.299 80.748C156.687 80.748 157.005 80.854 157.253 81.066C157.505 81.274 157.693 81.552 157.817 81.9C157.913 81.696 158.033 81.522 158.177 81.378C158.321 81.23 158.479 81.11 158.651 81.018C158.823 80.926 159.005 80.858 159.197 80.814C159.393 80.77 159.589 80.748 159.785 80.748C160.125 80.748 160.427 80.8 160.691 80.904C160.955 81.008 161.177 81.16 161.357 81.36C161.537 81.56 161.673 81.804 161.765 82.092C161.861 82.38 161.909 82.71 161.909 83.082V87H160.427V83.082C160.427 82.69 160.341 82.396 160.169 82.2C159.997 82 159.745 81.9 159.413 81.9C159.261 81.9 159.119 81.926 158.987 81.978C158.859 82.03 158.745 82.106 158.645 82.206C158.549 82.302 158.473 82.424 158.417 82.572C158.361 82.72 158.333 82.89 158.333 83.082V87H156.845V83.082C156.845 82.67 156.761 82.37 156.593 82.182C156.429 81.994 156.187 81.9 155.867 81.9C155.651 81.9 155.449 81.954 155.261 82.062C155.077 82.166 154.905 82.31 154.745 82.494V87H153.263ZM167.718 85.404C167.886 85.608 168.068 85.752 168.264 85.836C168.464 85.92 168.68 85.962 168.912 85.962C169.136 85.962 169.338 85.92 169.518 85.836C169.698 85.752 169.85 85.624 169.974 85.452C170.102 85.28 170.2 85.064 170.268 84.804C170.336 84.54 170.37 84.23 170.37 83.874C170.37 83.514 170.34 83.21 170.28 82.962C170.224 82.71 170.142 82.506 170.034 82.35C169.926 82.194 169.794 82.08 169.638 82.008C169.486 81.936 169.312 81.9 169.116 81.9C168.808 81.9 168.546 81.966 168.33 82.098C168.114 82.226 167.91 82.408 167.718 82.644V85.404ZM167.64 81.684C167.892 81.4 168.178 81.17 168.498 80.994C168.818 80.818 169.194 80.73 169.626 80.73C169.962 80.73 170.268 80.8 170.544 80.94C170.824 81.08 171.064 81.284 171.264 81.552C171.468 81.816 171.624 82.144 171.732 82.536C171.844 82.924 171.9 83.37 171.9 83.874C171.9 84.334 171.838 84.76 171.714 85.152C171.59 85.544 171.412 85.884 171.18 86.172C170.952 86.46 170.674 86.686 170.346 86.85C170.022 87.01 169.658 87.09 169.254 87.09C168.91 87.09 168.616 87.038 168.372 86.934C168.128 86.826 167.91 86.678 167.718 86.49V89.01H166.236V80.844H167.142C167.334 80.844 167.46 80.934 167.52 81.114L167.64 81.684ZM174.454 81.912C174.646 81.544 174.874 81.256 175.138 81.048C175.402 80.836 175.714 80.73 176.074 80.73C176.358 80.73 176.586 80.792 176.758 80.916L176.662 82.026C176.642 82.098 176.612 82.15 176.572 82.182C176.536 82.21 176.486 82.224 176.422 82.224C176.362 82.224 176.272 82.214 176.152 82.194C176.036 82.174 175.922 82.164 175.81 82.164C175.646 82.164 175.5 82.188 175.372 82.236C175.244 82.284 175.128 82.354 175.024 82.446C174.924 82.534 174.834 82.642 174.754 82.77C174.678 82.898 174.606 83.044 174.538 83.208V87H173.056V80.844H173.926C174.078 80.844 174.184 80.872 174.244 80.928C174.304 80.98 174.344 81.076 174.364 81.216L174.454 81.912ZM180.081 80.748C180.537 80.748 180.951 80.822 181.323 80.97C181.699 81.118 182.019 81.328 182.283 81.6C182.551 81.872 182.757 82.204 182.901 82.596C183.045 82.988 183.117 83.426 183.117 83.91C183.117 84.398 183.045 84.838 182.901 85.23C182.757 85.622 182.551 85.956 182.283 86.232C182.019 86.508 181.699 86.72 181.323 86.868C180.951 87.016 180.537 87.09 180.081 87.09C179.621 87.09 179.203 87.016 178.827 86.868C178.451 86.72 178.129 86.508 177.861 86.232C177.597 85.956 177.391 85.622 177.243 85.23C177.099 84.838 177.027 84.398 177.027 83.91C177.027 83.426 177.099 82.988 177.243 82.596C177.391 82.204 177.597 81.872 177.861 81.6C178.129 81.328 178.451 81.118 178.827 80.97C179.203 80.822 179.621 80.748 180.081 80.748ZM180.081 85.95C180.593 85.95 180.971 85.778 181.215 85.434C181.463 85.09 181.587 84.586 181.587 83.922C181.587 83.258 181.463 82.752 181.215 82.404C180.971 82.056 180.593 81.882 180.081 81.882C179.561 81.882 179.175 82.058 178.923 82.41C178.675 82.758 178.551 83.262 178.551 83.922C178.551 84.582 178.675 85.086 178.923 85.434C179.175 85.778 179.561 85.95 180.081 85.95ZM186.182 87.096C185.646 87.096 185.234 86.946 184.946 86.646C184.662 86.342 184.52 85.924 184.52 85.392V81.954H183.89C183.81 81.954 183.742 81.928 183.686 81.876C183.63 81.824 183.602 81.746 183.602 81.642V81.054L184.592 80.892L184.904 79.212C184.924 79.132 184.962 79.07 185.018 79.026C185.074 78.982 185.146 78.96 185.234 78.96H186.002V80.898H187.646V81.954H186.002V85.29C186.002 85.482 186.048 85.632 186.14 85.74C186.236 85.848 186.366 85.902 186.53 85.902C186.622 85.902 186.698 85.892 186.758 85.872C186.822 85.848 186.876 85.824 186.92 85.8C186.968 85.776 187.01 85.754 187.046 85.734C187.082 85.71 187.118 85.698 187.154 85.698C187.198 85.698 187.234 85.71 187.262 85.734C187.29 85.754 187.32 85.786 187.352 85.83L187.796 86.55C187.58 86.73 187.332 86.866 187.052 86.958C186.772 87.05 186.482 87.096 186.182 87.096ZM192.514 83.214C192.514 83.022 192.486 82.842 192.43 82.674C192.378 82.502 192.298 82.352 192.19 82.224C192.082 82.096 191.944 81.996 191.776 81.924C191.612 81.848 191.42 81.81 191.2 81.81C190.772 81.81 190.434 81.932 190.186 82.176C189.942 82.42 189.786 82.766 189.718 83.214H192.514ZM189.688 84.108C189.712 84.424 189.768 84.698 189.856 84.93C189.944 85.158 190.06 85.348 190.204 85.5C190.348 85.648 190.518 85.76 190.714 85.836C190.914 85.908 191.134 85.944 191.374 85.944C191.614 85.944 191.82 85.916 191.992 85.86C192.168 85.804 192.32 85.742 192.448 85.674C192.58 85.606 192.694 85.544 192.79 85.488C192.89 85.432 192.986 85.404 193.078 85.404C193.202 85.404 193.294 85.45 193.354 85.542L193.78 86.082C193.616 86.274 193.432 86.436 193.228 86.568C193.024 86.696 192.81 86.8 192.586 86.88C192.366 86.956 192.14 87.01 191.908 87.042C191.68 87.074 191.458 87.09 191.242 87.09C190.814 87.09 190.416 87.02 190.048 86.88C189.68 86.736 189.36 86.526 189.088 86.25C188.816 85.97 188.602 85.626 188.446 85.218C188.29 84.806 188.212 84.33 188.212 83.79C188.212 83.37 188.28 82.976 188.416 82.608C188.552 82.236 188.746 81.914 188.998 81.642C189.254 81.366 189.564 81.148 189.928 80.988C190.296 80.828 190.71 80.748 191.17 80.748C191.558 80.748 191.916 80.81 192.244 80.934C192.572 81.058 192.854 81.24 193.09 81.48C193.326 81.716 193.51 82.008 193.642 82.356C193.778 82.7 193.846 83.094 193.846 83.538C193.846 83.762 193.822 83.914 193.774 83.994C193.726 84.07 193.634 84.108 193.498 84.108H189.688ZM199.369 82.146C199.325 82.202 199.281 82.246 199.237 82.278C199.197 82.31 199.137 82.326 199.057 82.326C198.981 82.326 198.907 82.304 198.835 82.26C198.763 82.212 198.677 82.16 198.577 82.104C198.477 82.044 198.357 81.992 198.217 81.948C198.081 81.9 197.911 81.876 197.707 81.876C197.447 81.876 197.219 81.924 197.023 82.02C196.827 82.112 196.663 82.246 196.531 82.422C196.403 82.598 196.307 82.812 196.243 83.064C196.179 83.312 196.147 83.594 196.147 83.91C196.147 84.238 196.181 84.53 196.249 84.786C196.321 85.042 196.423 85.258 196.555 85.434C196.687 85.606 196.847 85.738 197.035 85.83C197.223 85.918 197.435 85.962 197.671 85.962C197.907 85.962 198.097 85.934 198.241 85.878C198.389 85.818 198.513 85.754 198.613 85.686C198.713 85.614 198.799 85.55 198.871 85.494C198.947 85.434 199.031 85.404 199.123 85.404C199.243 85.404 199.333 85.45 199.393 85.542L199.819 86.082C199.655 86.274 199.477 86.436 199.285 86.568C199.093 86.696 198.893 86.8 198.685 86.88C198.481 86.956 198.269 87.01 198.049 87.042C197.833 87.074 197.617 87.09 197.401 87.09C197.021 87.09 196.663 87.02 196.327 86.88C195.991 86.736 195.697 86.528 195.445 86.256C195.193 85.984 194.993 85.652 194.845 85.26C194.701 84.864 194.629 84.414 194.629 83.91C194.629 83.458 194.693 83.04 194.821 82.656C194.953 82.268 195.145 81.934 195.397 81.654C195.649 81.37 195.961 81.148 196.333 80.988C196.705 80.828 197.133 80.748 197.617 80.748C198.077 80.748 198.479 80.822 198.823 80.97C199.171 81.118 199.483 81.33 199.759 81.606L199.369 82.146ZM202.8 87.096C202.264 87.096 201.852 86.946 201.564 86.646C201.28 86.342 201.138 85.924 201.138 85.392V81.954H200.508C200.428 81.954 200.36 81.928 200.304 81.876C200.248 81.824 200.22 81.746 200.22 81.642V81.054L201.21 80.892L201.522 79.212C201.542 79.132 201.58 79.07 201.636 79.026C201.692 78.982 201.764 78.96 201.852 78.96H202.62V80.898H204.264V81.954H202.62V85.29C202.62 85.482 202.666 85.632 202.758 85.74C202.854 85.848 202.984 85.902 203.148 85.902C203.24 85.902 203.316 85.892 203.376 85.872C203.44 85.848 203.494 85.824 203.538 85.8C203.586 85.776 203.628 85.754 203.664 85.734C203.7 85.71 203.736 85.698 203.772 85.698C203.816 85.698 203.852 85.71 203.88 85.734C203.908 85.754 203.938 85.786 203.97 85.83L204.414 86.55C204.198 86.73 203.95 86.866 203.67 86.958C203.39 87.05 203.1 87.096 202.8 87.096ZM208.968 82.044C208.928 82.108 208.886 82.154 208.842 82.182C208.798 82.206 208.742 82.218 208.674 82.218C208.602 82.218 208.524 82.198 208.44 82.158C208.36 82.118 208.266 82.074 208.158 82.026C208.05 81.974 207.926 81.928 207.786 81.888C207.65 81.848 207.488 81.828 207.3 81.828C207.008 81.828 206.778 81.89 206.61 82.014C206.446 82.138 206.364 82.3 206.364 82.5C206.364 82.632 206.406 82.744 206.49 82.836C206.578 82.924 206.692 83.002 206.832 83.07C206.976 83.138 207.138 83.2 207.318 83.256C207.498 83.308 207.68 83.366 207.864 83.43C208.052 83.494 208.236 83.568 208.416 83.652C208.596 83.732 208.756 83.836 208.896 83.964C209.04 84.088 209.154 84.238 209.238 84.414C209.326 84.59 209.37 84.802 209.37 85.05C209.37 85.346 209.316 85.62 209.208 85.872C209.104 86.12 208.948 86.336 208.74 86.52C208.532 86.7 208.274 86.842 207.966 86.946C207.662 87.046 207.31 87.096 206.91 87.096C206.698 87.096 206.49 87.076 206.286 87.036C206.086 87 205.892 86.948 205.704 86.88C205.52 86.812 205.348 86.732 205.188 86.64C205.032 86.548 204.894 86.448 204.774 86.34L205.116 85.776C205.16 85.708 205.212 85.656 205.272 85.62C205.332 85.584 205.408 85.566 205.5 85.566C205.592 85.566 205.678 85.592 205.758 85.644C205.842 85.696 205.938 85.752 206.046 85.812C206.154 85.872 206.28 85.928 206.424 85.98C206.572 86.032 206.758 86.058 206.982 86.058C207.158 86.058 207.308 86.038 207.432 85.998C207.56 85.954 207.664 85.898 207.744 85.83C207.828 85.762 207.888 85.684 207.924 85.596C207.964 85.504 207.984 85.41 207.984 85.314C207.984 85.17 207.94 85.052 207.852 84.96C207.768 84.868 207.654 84.788 207.51 84.72C207.37 84.652 207.208 84.592 207.024 84.54C206.844 84.484 206.658 84.424 206.466 84.36C206.278 84.296 206.092 84.222 205.908 84.138C205.728 84.05 205.566 83.94 205.422 83.808C205.282 83.676 205.168 83.514 205.08 83.322C204.996 83.13 204.954 82.898 204.954 82.626C204.954 82.374 205.004 82.134 205.104 81.906C205.204 81.678 205.35 81.48 205.542 81.312C205.738 81.14 205.98 81.004 206.268 80.904C206.56 80.8 206.896 80.748 207.276 80.748C207.7 80.748 208.086 80.818 208.434 80.958C208.782 81.098 209.072 81.282 209.304 81.51L208.968 82.044Z" fill="#04A777"/>
<g clip-path="url(#clip0_425_4358)">
<path d="M78.552 27.4H70.072V18.6H64.92V41H70.072V32.136H78.552V41H83.704V18.6H78.552V27.4ZM95.001 24.04C91.257 24.04 86.457 26.888 86.457 32.744C86.457 36.36 88.569 39.176 91.161 40.424C92.473 41.032 93.849 41.32 95.289 41.32C98.137 41.32 100.409 40.488 102.105 38.824L99.321 36.136C99.161 36.232 98.297 36.584 98.041 36.68L97.401 36.872C96.857 37.032 96.249 37.064 95.481 37.064C93.401 37.064 92.057 36.2 91.513 34.472H103.001C103.513 30.888 102.553 27.944 100.793 26.408C99.033 24.84 97.017 24.04 95.001 24.04ZM95.001 28.36C96.569 28.36 98.073 29.256 98.457 30.888H91.545C92.153 29.256 93.497 28.36 95.001 28.36ZM112.929 41.32C114.625 41.32 116.193 40.552 116.801 40.008C117.089 39.72 117.345 39.432 117.505 39.144H117.729V41H122.785V24.36H117.729V26.216H117.505C117.153 25.672 116.705 25.096 115.265 24.488C114.561 24.2 113.793 24.04 112.929 24.04C110.849 24.04 108.993 24.808 107.297 26.312C105.633 27.816 104.801 29.96 104.801 32.68C104.801 35.4 105.633 37.544 107.297 39.048C108.993 40.552 110.849 41.32 112.929 41.32ZM113.729 36.872C111.457 36.872 109.665 35.272 109.665 32.68C109.665 30.088 111.457 28.488 113.729 28.488C115.937 28.488 117.825 30.088 117.825 32.68C117.825 35.272 115.937 36.872 113.729 36.872ZM126.038 18.376V41H131.094V18.376H126.038ZM142.383 36.744C140.975 36.744 140.783 35.944 140.783 35.176V28.52H144.335V24.36H140.783V20.104H135.727V24.36H133.391V28.52H135.727V36.2C135.727 40.008 137.583 41.192 140.911 41.192C142.351 41.192 143.503 40.968 144.367 40.488V36.392C143.631 36.616 142.959 36.744 142.383 36.744ZM157.153 24.04C155.777 24.04 154.625 24.424 153.697 25.192C152.769 25.96 152.193 26.696 151.969 27.368V18.376H146.913V41H151.969V31.208C152.001 30.664 152.353 30.056 152.961 29.416C153.569 28.776 154.337 28.456 155.201 28.456C156.961 28.456 158.209 29.48 158.209 31.816V41H163.297V31.464C163.297 29 162.689 27.176 161.473 25.928C160.257 24.68 158.817 24.04 157.153 24.04ZM172.712 35.048L168.296 24.36H163.144L170.152 40.584L167.144 47.08H172.2L175.048 41L182.28 24.36H177.096L172.712 35.048Z" fill="#221F1B"/>
<path d="M185.014 18.6V41H190.166V18.6H185.014ZM203.966 24.04C202.59 24.04 201.438 24.424 200.51 25.192C199.582 25.96 199.006 26.696 198.782 27.368V24.36H193.726V41H198.782V31.336C198.75 30.824 199.038 30.216 199.678 29.512C200.318 28.808 201.086 28.456 202.014 28.456C203.774 28.456 205.022 29.48 205.022 31.816V41H210.11V31.464C210.11 29 209.502 27.176 208.286 25.928C207.07 24.68 205.63 24.04 203.966 24.04Z" fill="#D7C9AA"/>
<path d="M31.4885 34.2565C31.0241 34.2697 30.5792 34.4518 30.2389 34.7679C29.8986 35.084 29.6869 35.512 29.6441 35.9699L29.6306 35.9571L29.7332 42.8051C29.7454 43.6241 29.4282 44.4176 28.8514 45.0112C28.2745 45.6047 27.4852 45.9496 26.6571 45.97L25.3068 46.0033C24.4787 46.0237 23.6797 45.718 23.0855 45.1533C22.4912 44.5887 22.1505 43.8113 22.1382 42.9924L21.8838 26.159L21.877 25.7054C21.868 25.2127 21.6622 24.7456 21.3047 24.4059C20.9473 24.0662 20.467 23.8815 19.9688 23.8921L19.1552 23.9121C18.657 23.9261 18.1826 24.1343 17.8356 24.4914C17.4885 24.8485 17.2969 25.3254 17.3026 25.8182L17.4249 33.9825C14.9006 34.8803 12.7178 36.5381 11.1858 38.7212C9.65377 40.9044 8.8502 43.5021 8.88892 46.1463C8.99308 53.1014 14.7797 58.6001 21.811 58.4254C28.4818 58.2614 33.8778 53.0532 34.3241 46.5837C34.3502 46.4548 34.3624 46.3237 34.3605 46.1925L34.3542 45.7771C34.3566 45.6899 34.3549 45.606 34.3541 45.5203C34.3532 45.4345 34.3497 45.3489 34.3466 45.2636L34.2109 36.0501C34.2018 35.5575 33.9961 35.0903 33.6386 34.7506C33.2811 34.4109 32.8008 34.2262 32.3026 34.2368L31.4885 34.2565Z" fill="#861657"/>
<path d="M41.5547 5.3855C34.8834 5.54998 29.4879 10.7577 29.0393 17.2295C29.0132 17.3584 29.001 17.4895 29.0029 17.6207L29.0092 18.0361C29.0068 18.1233 29.0085 18.2072 29.0093 18.2929C29.0102 18.3787 29.0137 18.4643 29.0169 18.5496L29.1548 27.7607C29.1639 28.2534 29.3696 28.7205 29.7271 29.0603C30.0846 29.4 30.5648 29.5847 31.0631 29.574L31.8767 29.554C32.3411 29.5408 32.786 29.3587 33.1263 29.0425C33.4666 28.7264 33.6783 28.2985 33.7211 27.8405L33.7346 27.8534L33.632 21.0053C33.6198 20.1863 33.937 19.3928 34.5138 18.7993C35.0907 18.2057 35.88 17.8608 36.7081 17.8404L38.0584 17.8071C38.8865 17.7867 39.6855 18.0925 40.2798 18.6571C40.874 19.2218 41.2147 19.9991 41.227 20.8181L41.4818 37.6519L41.4886 38.1055C41.4977 38.5982 41.7034 39.0653 42.0609 39.405C42.4184 39.7447 42.8987 39.9294 43.3969 39.9188L44.2105 39.8987C44.7087 39.8848 45.183 39.6765 45.5301 39.3195C45.8771 38.9624 46.0687 38.4854 46.063 37.9927L45.9408 29.8284C48.4651 28.9306 50.6479 27.2727 52.1799 25.0896C53.7119 22.9065 54.5155 20.3088 54.4767 17.6646C54.3726 10.7095 48.5873 5.2121 41.5547 5.3855Z" fill="#04A777"/>
</g>
<defs>
<clipPath id="clip0_425_4358">
<rect width="219" height="63" fill="white"/>
</clipPath>
</defs>
</svg>
